#!OML:ASF E:\id_vita\Project 1\Capture day 1\Session 1\Female.ASF
:FULLY-SPECIFIED
:DEGREES
942
root -20.5919 16.2536 -0.714452 369.117 -178.502 -358.653
lowerback -13.9106 0.819188 -3.09262
upperback -3.33293 1.12388 0.295551
thorax 4.20248 0.363808 2.23862
lowerneck 10.8217 0.516825 -4.2889
upperneck -6.26612 0.583704 6.53054
head -3.66224 0.0355039 2.66115
rclavicle -4.52235e-015 -4.77083e-015
rhumerus -32.6186 -22.0591 -82.034
rradius 15.8982
rwrist 29.6376
rhand -13.8752 10.8685
rfingers 7.12502
rthumb 12.2494 -18.7528
lclavicle -4.52235e-015 -4.77083e-015
lhumerus -32.7512 28.7363 77.9778
lradius 15.8946
lwrist -50.274
lhand -6.87113 24.0654
lfingers 7.12502
lthumb 18.9948 53.1579
rfemur -13.7613 5.73477 27.5044
rtibia 24.9013
rfoot -9.87499 -21.059
rtoes -10.257
lfemur -18.6505 -1.59306 -10.1575
ltibia 43.1902
lfoot -19.031 0.236183
ltoes -21.7626
943
root -20.5913 16.25 -0.71384 369.103 -178.568 -358.627
lowerback -13.8933 0.867094 -3.05138
upperback -3.33183 1.18126 0.300675
thorax 4.19168 0.392908 2.23013
lowerneck 10.486 0.314531 -4.20629
upperneck -5.88752 0.309041 6.42632
head -3.4769 -0.0881535 2.62847
rclavicle -5.44173e-015 1.15295e-014
rhumerus -32.8745 -21.944 -81.8886
rradius 16.0932
rwrist 29.4264
rhand -14.1994 10.9718
rfingers 7.12502
rthumb 11.9368 -18.6678
lclavicle -5.44173e-015 1.15295e-014
lhumerus -32.4935 26.485 79.2437
lradius 15.9635
lwrist -45.5332
lhand -8.89421 24.3716
lfingers 7.12502
lthumb 17.0483 53.6435
rfemur -13.7021 6.10961 27.5261
rtibia 24.8569
rfoot -9.57715 -21.3418
rtoes -10.5945
lfemur -18.6598 -1.56091 -10.1228
ltibia 43.2509
lfoot -18.9584 0.286874
ltoes -22.3372
944
root -20.5902 16.2469 -0.713492 369.048 -178.589 -358.619
lowerback -13.844 0.880582 -3.0553
upperback -3.30608 1.20211 0.317836
thorax 4.19027 0.4048 2.25335
lowerneck 10.7382 0.430923 -4.19961
upperneck -6.12642 0.476046 6.53976
head -3.60013 -0.0187712 2.65491
rclavicle -6.90777e-015 5.96354e-015
rhumerus -33.1602 -23.1101 -81.2813
rradius 16.2078
rwrist 30.7164
rhand -13.8699 10.8944
rfingers 7.12502
rthumb 12.2546 -18.7266
lclavicle -6.90777e-015 5.96354e-015
lhumerus -32.6889 26.5098 79.048
lradius 16.1967
lwrist -45.5187
lhand -7.17402 23.7755
lfingers 7.12502
lthumb 18.7034 52.8964
rfemur -13.6341 6.0539 27.5589
rtibia 24.8485
rfoot -9.49417 -21.3483
rtoes -11.2923
lfemur -18.6353 -1.53839 -10.0958
ltibia 43.3222
lfoot -18.9663 0.293118
ltoes -22.9165
945
root -20.5923 16.243 -0.719955 368.881 -178.773 -358.641
lowerback -13.81 0.955955 -3.06939
upperback -3.21529 1.31454 0.340547
thorax 4.25981 0.462668 2.30484
lowerneck 10.401 0.252988 -4.23525
upperneck -5.80828 0.226845 6.51886
head -3.43483 -0.131519 2.66568
rclavicle 9.54166e-015 -9.14409e-015
rhumerus -33.4105 -24.8688 -80.341
rradius 16.1689
rwrist 33.0462
rhand -13.0844 10.8497
rfingers 7.12502
rthumb 13.0119 -18.7245
lclavicle 9.54166e-015 -9.14409e-015
lhumerus -32.4234 24.5735 80.3144
lradius 16.3215
lwrist -41.6237
lhand -8.24028 24.5685
lfingers 7.12502
lthumb 17.6776 53.7849
rfemur -13.4486 5.91431 27.529
rtibia 24.8764
rfoot -9.53666 -21.1813
rtoes -11.9527
lfemur -18.3957 -1.45491 -10.1593
ltibia 43.3695
lfoot -19.0461 0.328827
ltoes -23.1597
946
root -20.5872 16.2404 -0.710667 369.105 -178.65 -358.69
lowerback -13.841 0.918354 -3.16619
upperback -3.31298 1.26539 0.34626
thorax 4.17388 0.435142 2.35642
lowerneck 10.7536 0.34818 -4.26751
upperneck -6.13999 0.360063 6.60192
head -3.60058 -0.0780053 2.69247
rclavicle 4.79568e-015 1.88845e-014
rhumerus -33.4701 -24.8399 -80.2831
rradius 16.0667
rwrist 32.5477
rhand -13.3516 11.01
rfingers 7.12502
rthumb 12.7542 -18.5805
lclavicle 4.79568e-015 1.88845e-014
lhumerus -32.5353 23.8077 80.6845
lradius 16.5755
lwrist -40.118
lhand -8.25932 24.5707
lfingers 7.12502
lthumb 17.6593 53.7888
rfemur -13.7292 6.49977 27.4723
rtibia 24.9386
rfoot -9.24458 -21.7272
rtoes -11.5165
lfemur -18.7567 -1.41803 -10.1299
ltibia 43.4129
lfoot -18.9693 -0.013639
ltoes -23.0389
947
root -20.5857 16.2393 -0.709892 369.109 -178.665 -358.697
lowerback -13.8114 0.908409 -3.16226
upperback -3.32319 1.25013 0.342478
thorax 4.14814 0.428027 2.34692
lowerneck 10.3934 0.210921 -4.00436
upperneck -5.72693 0.184573 6.3324
head -3.40611 -0.147726 2.5725
rclavicle -2.21396e-014 -5.1684e-015
rhumerus -33.5481 -25.0068 -80.0253
rradius 15.9565
rwrist 32.924
rhand -13.2076 10.9245
rfingers 7.12502
rthumb 12.8931 -18.6572
lclavicle -2.21396e-014 -5.1684e-015
lhumerus -32.6772 23.1217 80.8564
lradius 16.8521
lwrist -39.0927
lhand -8.14921 24.6125
lfingers 7.12502
lthumb 17.7653 53.821
rfemur -13.7445 6.86099 27.4477
rtibia 24.9814
rfoot -9.32839 -21.905
rtoes -10.7091
lfemur -18.785 -1.3589 -10.1189
ltibia 43.4143
lfoot -18.9203 -0.143508
ltoes -23.6139
948
root -20.5845 16.2392 -0.711039 369.048 -178.701 -358.654
lowerback -13.7514 0.912187 -3.10921
upperback -3.30715 1.24848 0.361647
thorax 4.13345 0.429211 2.33587
lowerneck 10.682 0.370734 -4.30359
upperneck -6.03177 0.386387 6.66739
head -3.5579 -0.0660874 2.71595
rclavicle 1.32689e-014 3.37934e-015
rhumerus -33.6264 -25.4228 -79.6723
rradius 15.7114
rwrist 33.3165
rhand -13.2612 10.8078
rfingers 7.12502
rthumb 12.8414 -18.7772
lclavicle 1.32689e-014 3.37934e-015
lhumerus -32.8577 22.5838 80.9492
lradius 17.0801
lwrist -38.2227
lhand -8.32154 24.6051
lfingers 7.12502
lthumb 17.5994 53.8285
rfemur -13.712 6.64244 27.5077
rtibia 25.0233
rfoot -9.50639 -21.6353
rtoes -10.5865
lfemur -18.7114 -1.35444 -10.0665
ltibia 43.4261
lfoot -18.9327 -0.131955
ltoes -24.3845
949
root -20.5881 16.2407 -0.716592 368.835 -178.825 -358.635
lowerback -13.5922 0.978204 -3.00672
upperback -3.23966 1.33046 0.343141
thorax 4.11614 0.475261 2.26999
lowerneck 10.5278 0.288833 -4.06975
upperneck -5.82509 0.289565 6.47825
head -3.46391 -0.105647 2.6232
rclavicle 6.48535e-015 6.16232e-015
rhumerus -33.6639 -25.1342 -79.7677
rradius 15.5455
rwrist 32.3166
rhand -13.6024 10.9793
rfingers 7.12502
rthumb 12.5125 -18.6261
lclavicle 6.48535e-015 6.16232e-015
lhumerus -33.1122 22.0076 81.0254
lradius 17.4324
lwrist -37.5006
lhand -8.41139 24.4833
lfingers 7.12502
lthumb 17.513 53.7144
rfemur -13.4702 6.38148 27.5293
rtibia 25.0037
rfoot -9.67798 -21.4028
rtoes -10.4604
lfemur -18.4121 -1.40883 -10.0612
ltibia 43.4135
lfoot -18.9409 -0.220305
ltoes -24.112
950
root -20.5866 16.2432 -0.709556 368.985 -178.715 -358.645
lowerback -13.5938 0.943076 -3.01588
upperback -3.29217 1.27799 0.352663
thorax 4.06437 0.44826 2.27573
lowerneck 10.8472 0.425468 -4.21901
upperneck -6.21734 0.477046 6.71064
head -3.64639 -0.0310055 2.71192
rclavicle -3.65267e-015 4.77083e-015
rhumerus -33.7358 -24.889 -79.8208
rradius 15.5424
rwrist 31.6813
rhand -13.8171 11.3861
rfingers 7.12502
rthumb 12.3054 -18.2318
lclavicle -3.65267e-015 4.77083e-015
lhumerus -33.2645 21.1267 81.3097
lradius 17.8702
lwrist -36.3721
lhand -8.29621 24.6121
lfingers 7.12502
lthumb 17.6238 53.8334
rfemur -13.6534 6.42072 27.5259
rtibia 24.9991
rfoot -9.675 -21.5662
rtoes -10.1325
lfemur -18.6399 -1.49867 -9.97938
ltibia 43.4228
lfoot -18.8284 -0.579105
ltoes -23.1783
951
root -20.5903 16.2442 -0.713276 368.868 -178.804 -358.674
lowerback -13.5591 0.966429 -2.99777
upperback -3.21214 1.3168 0.349513
thorax 4.12802 0.469801 2.26911
lowerneck 10.0321 0.155595 -4.1264
upperneck -5.09812 0.0709713 6.1957
head -3.49933 -0.169781 2.82903
rclavicle 2.05866e-014 6.75868e-015
rhumerus -33.9686 -25.0424 -79.6411
rradius 15.812
rwrist 31.937
rhand -13.8672 11.4115
rfingers 7.12502
rthumb 12.2571 -18.2093
lclavicle 2.05866e-014 6.75868e-015
lhumerus -33.4057 20.5902 81.408
lradius 18.2139
lwrist -35.5039
lhand -8.13835 24.6495
lfingers 7.12502
lthumb 17.7757 53.8571
rfemur -13.5186 6.23811 27.4955
rtibia 24.9948
rfoot -9.77841 -21.4248
rtoes -10.4956
lfemur -18.4671 -1.57073 -10.0176
ltibia 43.4158
lfoot -18.7718 -0.66469
ltoes -22.7155
952
root -20.5867 16.2467 -0.710882 369.058 -178.835 -358.772
lowerback -13.6917 0.964911 -3.11833
upperback -3.24859 1.32978 0.295974
thorax 4.15909 0.471581 2.28531
lowerneck 10.6109 0.383425 -4.57476
upperneck -6.06806 0.404152 7.21727
head -3.56091 -0.0820335 2.92923
rclavicle -4.9075e-015 -3.97569e-016
rhumerus -34.2995 -25.4661 -79.3343
rradius 16.1372
rwrist 32.7701
rhand -13.6647 11.0819
rfingers 7.12502
rthumb 12.4524 -18.5271
lclavicle -4.9075e-015 -3.97569e-016
lhumerus -33.5877 20.0257 81.4311
lradius 18.5268
lwrist -34.7122
lhand -8.24232 24.4482
lfingers 7.12502
lthumb 17.6757 53.6648
rfemur -13.7833 5.50253 27.4141
rtibia 25.023
rfoot -10.1892 -20.7718
rtoes -10.9505
lfemur -18.6753 -1.46003 -10.0782
ltibia 43.426
lfoot -18.7617 -0.786724
ltoes -22.7915
953
root -20.5899 16.2493 -0.714215 368.973 -178.883 -358.872
lowerback -13.6343 0.986171 -3.13804
upperback -3.20397 1.36935 0.22482
thorax 4.17371 0.492949 2.22783
lowerneck 9.81599 0.114012 -4.43309
upperneck -5.04609 0.0128076 6.82129
head -3.44642 -0.220295 3.10609
rclavicle -4.34841e-016 -8.34896e-015
rhumerus -34.5257 -25.5598 -79.193
rradius 16.3143
rwrist 33.0755
rhand -13.3566 10.9606
rfingers 7.12502
rthumb 12.7495 -18.6301
lclavicle -4.34841e-016 -8.34896e-015
lhumerus -33.9086 19.3938 81.4867
lradius 18.8944
lwrist -34.0769
lhand -8.59339 24.3093
lfingers 7.12502
lthumb 17.3378 53.556
rfemur -13.6977 5.5132 27.2805
rtibia 25.0492
rfoot -10.409 -20.6891
rtoes -10.6525
lfemur -18.5487 -1.5004 -10.2048
ltibia 43.4021
lfoot -18.7804 -0.819494
ltoes -22.1918
